<?xml version="1.0" encoding="UTF-8" standalone="no"?>
<!-- Created with Inkscape (http://www.inkscape.org/) -->

<svg
   width="49.999962"
   height="49.999878"
   viewBox="0 0 13.229156 13.229134"
   version="1.1"
   id="svg1"
   xml:space="preserve"
   xmlns="http://www.w3.org/2000/svg"
   xmlns:svg="http://www.w3.org/2000/svg"><defs
     id="defs1" /><g
     id="layer1"
     transform="translate(-27.818734,-363.28528)"><path
       id="path1307-6-4-7-2-5-1-8-1"
       style="color:#000000;fill:#ffffff;stroke-width:0.127216;stroke-linejoin:round;-inkscape-stroke:none;paint-order:stroke fill markers"
       d="m 28.877201,363.28624 c -0.363298,-0.0184 -0.686484,0.23177 -0.764912,0.59159 -0.193834,0.89072 -0.399465,2.16594 -0.231583,3.4068 0.08394,0.62044 0.264047,1.24229 0.632503,1.78437 0.302352,0.44483 0.74973,0.81293 1.299822,1.04369 -0.335324,0.85298 -0.609384,1.75566 -0.617733,2.67894 -0.0078,0.85527 0.272389,1.76008 0.982252,2.42191 0.661668,0.61689 1.624922,1.00953 2.941481,1.20828 0.05744,0.0505 0.117553,0.0824 0.180941,0.0903 0.127239,0.0101 0.252484,-0.0143 0.365048,-0.0658 0.148524,-0.0367 0.284108,-0.11876 0.386677,-0.23888 0.108853,0.0134 0.217838,0.0252 0.329176,0.0252 0.01756,0 0.03475,-0.002 0.05222,-0.003 0.01747,5.1e-4 0.03466,0.003 0.05222,0.003 0.111337,2e-5 0.220322,-0.0118 0.329176,-0.0252 0.102707,0.12028 0.238444,0.2027 0.387204,0.23941 0.112508,0.0514 0.237365,0.0754 0.364519,0.0653 0.06342,-0.008 0.124005,-0.0397 0.181469,-0.0903 1.316295,-0.19877 2.279373,-0.59146 2.940953,-1.20828 0.709864,-0.66183 0.990538,-1.56664 0.98278,-2.42191 -0.0083,-0.92328 -0.282409,-1.82596 -0.617732,-2.67894 0.550091,-0.23076 0.996942,-0.59886 1.299294,-1.04369 0.368455,-0.54208 0.549089,-1.16393 0.633031,-1.78437 0.167883,-1.24086 -0.03828,-2.51608 -0.232111,-3.4068 -0.07843,-0.35982 -0.401614,-0.6099 -0.764912,-0.59159 -1.891969,0.0951 -3.211128,0.80594 -3.817173,1.93828 -0.486022,-0.2095 -1.03072,-0.39022 -1.67542,-0.39761 -0.01275,-3.2e-4 -0.02582,-10e-4 -0.03851,-0.002 h -5.28e-4 c -0.0083,-1.1e-4 -0.01604,5.9e-4 -0.02427,5.4e-4 -0.0082,5e-5 -0.01601,-6.5e-4 -0.02427,-5.4e-4 h -5.28e-4 c -0.01269,1.7e-4 -0.02576,10e-4 -0.03851,0.002 -0.644701,0.007 -1.18887,0.18811 -1.674892,0.39761 -0.606045,-1.13234 -1.925732,-1.84314 -3.817701,-1.93828 z" /><path
       id="path868-8-8-9-9-8-8-8-7-9-9-5"
       style="fill:#004d1f;fill-opacity:1;stroke:none;stroke-width:0.109702;stroke-linecap:butt;stroke-linejoin:miter;stroke-miterlimit:4;stroke-dasharray:none;stroke-opacity:1"
       d="m 28.786773,364.11435 c -0.367933,1.66902 -0.73456,4.79682 1.537023,5.4108 l 0.302818,-0.74937 c -1.506244,0.13095 -1.489277,-2.68545 -1.327384,-3.97015 1.28293,0.1213 3.155627,0.97365 2.014565,3.60695 -1.141062,2.63332 -3.374172,6.55073 2.131023,7.22636 -0.360432,-0.13056 -0.68243,-0.37766 -0.955047,-0.77313 -3.152761,-0.89626 -1.757068,-3.19472 -0.698453,-5.71516 1.058615,-2.52045 0.646842,-4.85504 -3.004545,-5.0363 z m 11.293087,0.0464 c -3.651386,0.18127 -4.063161,2.51588 -3.004547,5.03631 1.058597,2.52045 2.45431,4.81928 -0.698452,5.71553 -0.272617,0.39548 -0.594615,0.6422 -0.955046,0.77276 5.505194,-0.67563 3.272085,-4.59266 2.131021,-7.22597 -1.141061,-2.63332 0.731636,-3.48603 2.014547,-3.60733 0.161913,1.28471 0.178899,4.10111 -1.327365,3.97013 l 0.302818,0.74975 c 2.271582,-0.61397 1.904939,-3.74215 1.537024,-5.41118 z m -5.685998,1.47386 c -0.659248,-0.009 -1.209773,0.18882 -1.733906,0.43748 0.07169,0.26501 0.09842,0.53 0.08229,0.795 1.060252,-0.66758 2.162283,-0.69602 3.310386,-0.0166 0.03286,-0.24426 0.0044,-0.44222 0.115341,-0.74523 -0.68268,-0.33117 -1.261348,-0.46357 -1.774112,-0.47066 z m -1.365704,3.748 c -0.278157,10e-6 -0.614293,0.26921 -0.672522,0.51517 0.384303,-0.0235 0.382707,0.0998 0.660884,0.17009 0.269771,0.0682 0.474522,-0.11143 0.474522,-0.32811 0,-0.2167 -0.184707,-0.35715 -0.462884,-0.35715 z m 2.751703,0.007 c -0.278177,0 -0.462885,0.14084 -0.462885,0.35753 0,0.21669 0.204753,0.39589 0.474523,0.32773 0.278176,-0.0702 0.276579,-0.19314 0.660883,-0.16971 -0.05823,-0.24597 -0.394363,-0.51554 -0.672521,-0.51555 z m -1.348045,2.50081 a 2.1544033,1.7567821 0 0 0 -2.154318,1.75671 2.1544033,1.7567821 0 0 0 2.154318,1.75671 2.1544033,1.7567821 0 0 0 2.154703,-1.75671 2.1544033,1.7567821 0 0 0 -2.154703,-1.75671 z m -0.01173,0.53855 a 1.4906142,1.2155031 0 0 1 1.490818,1.21552 1.4906142,1.2155031 0 0 1 -1.490818,1.21551 1.4906142,1.2155031 0 0 1 -1.490433,-1.21551 1.4906142,1.2155031 0 0 1 1.490433,-1.21552 z m -0.569569,0.87232 a 0.27585772,0.2774319 0 0 0 -0.268251,0.27758 0.27585772,0.2774319 0 0 0 0.275772,0.27719 0.27585772,0.2774319 0 0 0 0.275773,-0.27719 0.27585772,0.2774319 0 0 0 -0.275773,-0.27758 0.27585772,0.2774319 0 0 0 -0.0076,0 z m 1.082795,0.004 a 0.27585772,0.2774319 0 0 0 -0.268251,0.27757 0.27585772,0.2774319 0 0 0 0.275773,0.2772 0.27585772,0.2774319 0 0 0 0.275772,-0.2772 0.27585772,0.2774319 0 0 0 -0.275772,-0.27757 0.27585772,0.2774319 0 0 0 -0.0076,0 z" /></g></svg>
