<?xml version="1.0" encoding="UTF-8" standalone="no"?>
<!-- Created with Inkscape (http://www.inkscape.org/) -->

<svg
   width="98.993095"
   height="98.993088"
   viewBox="0 0 26.191923 26.191921"
   version="1.1"
   id="svg1"
   xml:space="preserve"
   xmlns="http://www.w3.org/2000/svg"
   xmlns:svg="http://www.w3.org/2000/svg"><defs
     id="defs1" /><g
     id="layer1"
     transform="translate(-21.947096,81.707511)"><rect
       style="fill:#ffffff;stroke:none;stroke-width:0.266412;stroke-linecap:square;paint-order:markers fill stroke"
       id="rect4"
       width="26.191921"
       height="26.191921"
       x="21.947096"
       y="-81.707512"
       ry="0.10192332" /><g
       id="g5"
       transform="matrix(0.74227335,0,0,0.74227335,-53.577601,-42.377463)"><path
         id="path1307-6-4-7-2-5-1-8-2"
         style="color:#000000;fill:#ffffff;stroke-width:0.249832;stroke-linejoin:round;-inkscape-stroke:none;paint-order:stroke fill markers"
         d="m 108.45901,-46.820914 c -0.7181,-0.03575 -1.35703,0.452382 -1.51205,1.154451 -0.38313,1.737953 -0.78968,4.225482 -0.45785,6.646623 0.16592,1.210568 0.52228,2.424265 1.25057,3.481958 0.59762,0.867943 1.481,1.586329 2.56831,2.036568 -0.6628,1.6643 -1.20409,3.425623 -1.22059,5.227071 -0.0153,1.668757 0.5389,3.433434 1.942,4.724776 1.28754,1.184983 3.15188,1.946927 5.69216,2.340426 0.11997,0.110273 0.24657,0.176916 0.37982,0.19327 0.22111,0.01739 0.43805,-0.01815 0.63872,-0.09457 0.35906,-0.04101 0.69351,-0.212958 0.93689,-0.488859 0.18546,0.0212 0.37181,0.03878 0.56121,0.03876 0.0514,-2e-6 0.10148,-0.0062 0.15244,-0.0083 0.0511,0.0021 0.1015,0.0083 0.15297,0.0083 0.18951,2.5e-5 0.37563,-0.01754 0.5612,-0.03876 0.24338,0.275901 0.57783,0.447851 0.9369,0.488859 0.20066,0.07642 0.41761,0.111954 0.63872,0.09457 0.13325,-0.01635 0.25933,-0.083 0.3793,-0.19327 2.54044,-0.393484 4.40508,-1.155392 5.69268,-2.340426 1.4031,-1.291342 1.9573,-3.056019 1.942,-4.724776 -0.0165,-1.801448 -0.55832,-3.562771 -1.22112,-5.227071 1.08731,-0.450239 1.97122,-1.168625 2.56884,-2.036568 0.72829,-1.057693 1.08465,-2.27139 1.25057,-3.481958 0.33183,-2.421141 -0.0752,-4.90867 -0.45837,-6.646623 -0.15502,-0.702069 -0.79395,-1.190201 -1.51205,-1.154451 -3.72746,0.185034 -6.32973,1.564181 -7.53288,3.76101 -0.47024,-0.190083 -0.92871,-0.345958 -1.37459,-0.466121 -0.44311,-0.125072 -0.91239,-0.218315 -1.41283,-0.261999 -0.0455,-0.0042 -0.0913,-0.0091 -0.13643,-0.0124 -0.068,-0.0046 -0.13706,-0.0066 -0.20619,-0.0093 -0.0566,-0.0023 -0.11403,-0.0075 -0.17001,-0.0083 h -5.2e-4 c -0.0334,-4.6e-4 -0.065,0.0021 -0.0982,0.0021 -0.033,-8e-6 -0.0644,-0.0025 -0.0977,-0.0021 h -5.2e-4 c -0.0559,7.73e-4 -0.11354,0.0055 -0.17002,0.0078 -0.0693,0.0027 -0.13859,0.0052 -0.2067,0.0098 -0.0453,0.0033 -0.0913,0.0082 -0.13694,0.0124 -0.50912,0.04449 -0.9862,0.139844 -1.43609,0.2682 -0.43829,0.119275 -0.88908,0.27327 -1.35082,0.45992 -1.20316,-2.196822 -3.80542,-3.575976 -7.53288,-3.76101 z" /><path
         id="path868-8-8-9-9-8-8-8-7-9-9-4"
         style="fill:#004d1f;fill-opacity:1;stroke:none;stroke-width:0.216835;stroke-linecap:butt;stroke-linejoin:miter;stroke-miterlimit:4;stroke-dasharray:none;stroke-opacity:1"
         d="m 108.37831,-45.348059 c -0.72725,3.298962 -1.45192,9.481353 3.03806,10.694924 l 0.59855,-1.481196 c -2.97723,0.258849 -2.94369,-5.308029 -2.62369,-7.847353 2.53582,0.239766 6.23737,1.924495 3.98196,7.12947 -2.25541,5.204983 -6.66935,12.948076 4.21216,14.283531 -0.71242,-0.258071 -1.34888,-0.746476 -1.88773,-1.52817 -6.23172,-1.771526 -3.47301,-6.314636 -1.38056,-11.296513 2.09245,-4.981884 1.27854,-9.596419 -5.93875,-9.954693 z m 22.32179,0.09168 c -7.21729,0.358274 -8.0312,4.972849 -5.93875,9.954707 2.09241,4.981888 4.85116,9.525747 -1.38056,11.297258 -0.53885,0.781705 -1.1753,1.269365 -1.88773,1.527422 10.88151,-1.335451 6.46757,-9.0778 4.21215,-14.282779 -2.2554,-5.204975 1.44615,-6.890428 3.98193,-7.130194 0.32004,2.539325 0.35361,8.106195 -2.62365,7.847314 l 0.59855,1.481952 c 4.48998,-1.213585 3.76528,-7.396682 3.03806,-10.69568 z m -11.23888,2.913207 c -1.30306,-0.01793 -2.39122,0.373235 -3.42722,0.864707 0.14171,0.523843 0.19452,1.04761 0.16266,1.571413 2.09568,-1.319544 4.27394,-1.375767 6.54327,-0.03283 0.0649,-0.482808 0.009,-0.874096 0.22798,-1.473014 -1.34938,-0.654597 -2.49316,-0.916307 -3.50669,-0.930314 z m -2.69944,7.408263 c -0.5498,10e-6 -1.2142,0.532104 -1.3293,1.018277 0.75962,-0.0463 0.75646,0.197295 1.3063,0.336196 0.53323,0.134732 0.93794,-0.220237 0.93794,-0.648535 0,-0.428316 -0.36509,-0.705938 -0.91494,-0.705938 z m 5.43899,0.0149 c -0.54984,0 -0.91493,0.278364 -0.91493,0.706684 0,0.428298 0.40471,0.782525 0.93793,0.647793 0.54985,-0.138897 0.54669,-0.381756 1.3063,-0.33545 -0.11509,-0.486174 -0.7795,-1.019016 -1.3293,-1.019027 z m -2.66453,4.943059 a 4.2583696,3.4724358 0 0 0 -4.2582,3.4723 4.2583696,3.4724358 0 0 0 4.2582,3.472292 4.2583696,3.4724358 0 0 0 4.25896,-3.472292 4.2583696,3.4724358 0 0 0 -4.25896,-3.4723 z m -0.0232,1.064501 a 2.9463315,2.4025498 0 0 1 2.94673,2.402583 2.9463315,2.4025498 0 0 1 -2.94673,2.402572 2.9463315,2.4025498 0 0 1 -2.94598,-2.402572 2.9463315,2.4025498 0 0 1 2.94598,-2.402583 z m -1.12581,1.724219 a 0.5452573,0.54836882 0 0 0 -0.53022,0.548653 0.5452573,0.54836882 0 0 0 0.54509,0.547904 0.5452573,0.54836882 0 0 0 0.54509,-0.547904 0.5452573,0.54836882 0 0 0 -0.54509,-0.548653 0.5452573,0.54836882 0 0 0 -0.0148,0 z m 2.14024,0.0082 a 0.5452573,0.54836882 0 0 0 -0.53022,0.548649 0.5452573,0.54836882 0 0 0 0.54509,0.547901 0.5452573,0.54836882 0 0 0 0.54509,-0.547901 0.5452573,0.54836882 0 0 0 -0.54509,-0.548649 0.5452573,0.54836882 0 0 0 -0.0148,0 z" /></g></g></svg>
