<?xml version="1.0" encoding="UTF-8" standalone="no"?>
<!-- Created with Inkscape (http://www.inkscape.org/) -->

<svg
   width="159.52896"
   height="64.999992"
   viewBox="0 0 42.208704 17.197915"
   version="1.1"
   id="svg1"
   xml:space="preserve"
   xmlns="http://www.w3.org/2000/svg"
   xmlns:svg="http://www.w3.org/2000/svg"><defs
     id="defs1" /><g
     id="layer1"
     transform="translate(-30.901076,-22.23253)"><g
       id="g17"
       transform="matrix(0.23937685,0,0,0.23937685,26.870861,-4.7159692)"><path
         style="color:#000000;fill:#ffffff;stroke-width:0.694002;stroke-linejoin:round;-inkscape-stroke:none;paint-order:stroke fill markers"
         d="m 99.627045,112.57772 c -1.908776,0 -3.785275,0.3348 -5.516775,1.05049 -1.673315,0.68589 -3.20105,1.70737 -4.45001,3.00779 -0.0056,0.006 -0.01083,0.0117 -0.01624,0.0176 -0.345183,0.36368 -0.611589,0.7911 -0.910878,1.19281 -0.107993,-0.53504 -0.174423,-1.24925 -0.283298,-1.74313 -0.429976,-1.95028 -2.204574,-3.30557 -4.199254,-3.20705 -10.400835,0.51631 -17.649721,4.37897 -20.971874,10.52931 -3.584958,-1.54042 -6.940638,-2.39908 -9.988473,-2.4412 h -0.0014 c -3.754766,-0.0517 -6.889185,0.97746 -9.679427,2.16469 -3.327622,-6.13735 -10.5714,-9.99059 -20.959674,-10.50627 -1.99477,-0.0993 -3.769985,1.25543 -4.200613,3.20569 -1.064287,4.82782 -2.194581,11.73862 -1.272786,18.46425 0.460893,3.36281 1.450998,6.73451 3.474077,9.67265 1.660136,2.41104 4.114807,4.40568 7.135208,5.65639 -1.841166,4.62322 -3.345555,9.51698 -3.391393,14.52118 -0.04247,4.6356 1.497122,9.53785 5.394783,13.12504 3.897654,3.5872 9.670294,5.79303 17.735,6.78279 1.365518,0.14858 2.714533,-0.39765 3.592002,-1.45442 0.768093,0.0988 1.537388,0.1965 2.324636,0.19654 0.772327,1e-4 1.527255,-0.0974 2.281261,-0.19248 0.834218,1.17062 2.221334,1.81787 3.654358,1.70519 8.064658,-0.98975 13.835972,-3.19448 17.733647,-6.78144 3.897675,-3.58695 5.437249,-8.48965 5.394783,-13.12504 0.899107,-2.51483 2.366276,1.06043 4.315825,4.22095 7.489288,8.94094 14.96323,13.58226 22.61064,15.13114 7.64741,1.54887 15.02775,0.0926 22.61471,-1.84209 15.17391,-3.86943 31.58672,-9.90344 56.03931,-3.61776 2.99655,0.73714 5.70016,-1.98053 4.94748,-4.97322 -0.0879,-1.46813 -0.95671,-2.77623 -2.27585,-3.42664 -5.51014,-2.4475 -10.59097,-4.10828 -15.48492,-5.449 0.41965,-0.41665 0.76636,-0.86922 0.9773,-1.31752 0.24152,-0.50811 0.39218,-1.01591 0.46222,-1.47475 0.002,-0.014 0.005,-0.028 0.007,-0.042 0.0584,-0.4109 0.0705,-0.75355 0.0705,-1.09115 0,-0.33827 -0.0126,-0.68186 -0.0705,-1.08981 v -0.001 c -0.0645,-0.45359 -0.239,-1.0472 -0.61268,-1.7228 -0.29155,-0.53432 -0.75064,-1.08221 -1.37308,-1.52762 -0.80433,-0.56035 -1.79832,-0.87157 -2.5632,-0.87157 h -2.89258 v -12.84717 c 0,-0.65971 -0.21694,-1.45064 -0.5937,-2.14843 0.15404,-0.0563 0.30836,-0.0707 0.46222,-0.13826 0.0109,-0.005 0.0217,-0.01 0.0325,-0.0149 0.28711,-0.1289 0.54949,-0.3309 0.82548,-0.49881 0.91313,0.69942 1.70431,0.88448 2.27855,0.95019 0.46194,0.0669 0.86571,0.0895 1.27007,0.0895 0.37492,0 0.72081,-0.009 1.1386,-0.0569 0.40263,-0.0448 0.83201,-0.0691 1.61708,-0.4202 0.0562,-0.0254 0.11176,-0.052 0.16672,-0.08 0.4391,-0.22077 0.98629,-0.54359 1.53982,-1.21179 0.0644,-0.0781 0.12591,-0.1586 0.18435,-0.24127 0.30698,-0.43231 0.52427,-0.89009 0.66825,-1.3243 l 0.6452,-1.90308 h 2.26093 l 0.71162,2.02914 c 0.0357,0.10184 0.0756,0.20222 0.11928,0.30091 0.10928,0.24736 0.24077,0.51533 0.45273,0.83497 0.0805,0.12111 0.16736,0.23785 0.26025,0.34972 0.5378,0.64886 1.16472,1.04046 1.69027,1.2755 0.15908,0.0709 0.32252,0.13156 0.48933,0.18163 0.60153,0.18151 0.96269,0.19982 1.31481,0.21959 0.35797,0.0319 0.68773,0.0461 1.041,0.0461 0.39794,0 0.75165,-0.008 1.18062,-0.0556 0.62764,-0.0661 1.52926,-0.12872 2.66757,-1.13047 1.05081,-0.92457 1.49785,-2.53602 1.4612,-3.5554 -0.0302,-0.76549 -0.17133,-1.31445 -0.33074,-1.75534 l -6.53066,-18.19044 c -6.9e-4,-0.003 -0.002,-0.006 -0.003,-0.008 -0.19264,-0.53277 -0.54657,-1.13626 -1.0532,-1.67401 -0.65423,-0.69457 -1.42717,-1.10503 -2.05218,-1.29854 h -10e-4 c -0.61389,-0.18983 -1.06028,-0.22557 -1.48018,-0.2467 -0.34759,-0.0278 -0.68085,-0.042 -1.03829,-0.042 -0.34621,0 -0.67439,0.0142 -1.01932,0.0434 -0.41733,0.0239 -0.8694,0.073 -1.42596,0.24534 -0.0299,0.01 -0.0598,0.0195 -0.0894,0.0298 -0.57159,0.19165 -1.26407,0.53265 -1.88818,1.16029 -0.0739,0.0745 -0.14488,0.15182 -0.21281,0.23178 -0.45956,0.53941 -0.71763,1.07517 -0.88376,1.5344 -7e-4,0.003 -0.002,0.006 -0.003,0.01 l -1.26873,3.53371 v -2.22568 c 0,-0.96434 -0.41467,-1.9486 -0.90951,-2.62013 -0.61864,-0.83322 -1.32743,-1.25954 -1.86378,-1.48289 -0.68528,-0.29416 -1.13094,-0.35577 -1.51542,-0.40122 -0.38938,-0.046 -0.74021,-0.0583 -1.09793,-0.0583 -0.36309,0 -0.71349,0.0111 -1.11284,0.0583 -0.01,10e-4 -0.0199,0.003 -0.0299,0.004 -0.38908,0.0489 -0.82249,0.1188 -1.40969,0.35514 -0.58331,0.23485 -1.42033,0.67203 -2.09284,1.68621 -0.12676,0.19124 -0.2072,0.4354 -0.30634,0.66147 -0.0926,-0.20302 -0.16275,-0.42684 -0.27788,-0.60048 v -10e-4 c -0.52111,-0.78584 -1.17192,-1.21964 -1.72145,-1.49645 -0.71919,-0.37642 -1.29247,-0.50218 -1.75127,-0.55981 -0.39283,-0.0493 -0.73917,-0.0623 -1.08302,-0.0623 -0.35919,0 -0.70213,0.009 -1.1264,0.0623 -0.0117,0.001 -0.0235,0.003 -0.0352,0.004 -0.4604,0.0618 -0.99966,0.19529 -1.60082,0.48526 -0.56552,0.26654 -1.27463,0.71936 -1.83667,1.56692 -0.36502,0.55043 -0.58414,1.27774 -0.66824,1.98848 l -0.1857,-0.33751 v -10e-4 c -0.20897,-0.38316 -0.43951,-0.7452 -0.70213,-1.11284 -0.32519,-0.48369 -0.77772,-0.9836 -1.38259,-1.43273 -0.59942,-0.45492 -1.28716,-0.79902 -1.95459,-0.96916 -0.67131,-0.17344 -1.21856,-0.20739 -1.73636,-0.20739 h -1.23484 c -1.15577,0 -2.39468,0.46588 -3.23415,1.11826 -1.44931,1.12633 -1.91257,2.94601 -1.91257,4.09489 v 3.08912 l -1.83938,-5.12369 c -6.9e-4,-0.003 -0.002,-0.006 -0.003,-0.008 -0.19547,-0.54059 -0.55192,-1.14281 -1.05591,-1.67671 -0.64989,-0.68841 -1.42349,-1.10203 -2.04947,-1.29584 h -0.001 c -0.61389,-0.18982 -1.06028,-0.22557 -1.48018,-0.24669 -0.34788,-0.0278 -0.68085,-0.0421 -1.03829,-0.0421 -0.34621,0 -0.6747,0.0142 -1.01932,0.0434 -0.41732,0.0239 -0.8693,0.073 -1.42596,0.24535 -0.0299,0.01 -0.0598,0.0195 -0.0894,0.0298 -0.57161,0.19164 -1.26407,0.53265 -1.88818,1.16028 -0.0739,0.0745 -0.14488,0.15183 -0.21281,0.23178 -0.45442,0.53339 -0.71502,1.06794 -0.88376,1.5344 -10e-4,0.003 -0.003,0.006 -0.004,0.01 l -1.76618,4.91901 c -0.0789,-0.68459 -0.10493,-1.37357 -0.34294,-2.03863 -0.36177,-1.04666 -0.9378,-2.04643 -1.6862,-2.87632 -0.76833,-0.85195 -1.7073,-1.52209 -2.70011,-2.00609 -0.98122,-0.48299 -2.01833,-0.79429 -3.0837,-0.98001 -0.0765,-0.0135 -0.15331,-0.0248 -0.23043,-0.0339 -0.31156,-0.0361 -0.63833,-0.0617 -0.97594,-0.084 -0.006,-4.9e-4 -0.011,4.9e-4 -0.0162,0 -0.5122,-0.0476 -1.01997,-0.0637 -1.58861,-0.0637 h -4.13826 c -1.17746,0 -2.35328,0.48078 -3.13791,1.07761 -0.38284,0.29087 -0.69545,0.6202 -0.94613,0.9678 -0.20624,-0.13547 -0.46175,-0.37123 -0.66689,-0.48797 -0.66784,-0.40733 -1.33931,-0.69774 -2.03727,-0.93392 -0.72436,-0.2589 -1.47298,-0.46014 -2.265,-0.61945 -0.94627,-0.19034 -1.91539,-0.27651 -2.899361,-0.27651 z m 6.968485,4.24533 c 0.0279,0.009 0.1222,0.0106 0.14504,0.0203 -0.004,0.0197 -0.006,0.0373 -0.01,0.0569 -0.0438,-0.0277 -0.0916,-0.0504 -0.13555,-0.0773 z m 16.03118,1.38666 0.0203,0.0298 c -0.003,-0.006 -0.01,-0.008 -0.0135,-0.0135 -0.003,-0.005 -0.003,-0.0112 -0.007,-0.0162 z"
         id="path1307-6-4-7-2-5-1-8" /><path
         id="path868-8-8-9-9-8-8-8-7-9-9"
         style="fill:#004d1f;fill-opacity:1;stroke:none;stroke-width:0.602342;stroke-linecap:butt;stroke-linejoin:miter;stroke-miterlimit:4;stroke-dasharray:none;stroke-opacity:1"
         d="m 22.424439,116.7335 c -2.020219,9.16411 -4.033262,26.33803 8.439364,29.70918 l 1.66269,-4.11458 c -8.270367,0.71905 -8.177204,-14.74505 -7.288299,-21.79898 7.044211,0.66604 17.32667,5.34601 11.061414,19.80479 -6.265249,14.4588 -18.526634,35.96816 11.700854,39.67789 -1.97903,-0.71689 -3.747028,-2.07362 -5.243893,-4.24507 -17.31093,-4.92108 -9.647573,-17.54128 -3.835014,-31.38032 5.812559,-13.83906 3.551632,-26.65767 -16.497116,-27.65291 z m 62.007181,0.25467 c -20.04874,0.99524 -22.309681,13.81396 -16.497122,27.65295 5.812454,13.83907 13.475923,26.46135 -3.835007,31.38239 -1.496865,2.17148 -3.264863,3.52614 -5.243893,4.24299 30.227481,-3.70972 17.966102,-25.21701 11.700846,-39.6758 -6.265249,-14.45878 4.017203,-19.14076 11.06131,-19.8068 0.889017,7.05393 0.982284,22.51801 -7.288187,21.79887 l 1.66269,4.11668 c 12.472619,-3.37119 10.459485,-20.54707 8.439363,-29.71128 z m -31.220223,8.09253 c -3.619748,-0.0498 -6.642529,1.0368 -9.520396,2.40205 0.393645,1.45517 0.540357,2.91013 0.451844,4.36519 5.821546,-3.66553 11.872487,-3.82171 18.176399,-0.0912 0.180406,-1.34118 0.02429,-2.42813 0.633305,-4.09185 -3.748403,-1.81839 -6.925704,-2.54539 -9.741152,-2.5843 z m -7.498699,20.57924 c -1.527283,3e-5 -3.372912,1.47812 -3.692632,2.82865 2.110106,-0.12863 2.101341,0.54806 3.628735,0.93391 1.481237,0.37427 2.605464,-0.61179 2.605464,-1.80155 0,-1.18981 -1.014172,-1.96101 -2.541567,-1.96101 z m 15.108827,0.0414 c -1.527387,0 -2.541567,0.77326 -2.541567,1.96308 0,1.18976 1.124241,2.17376 2.605471,1.79949 1.527394,-0.38584 1.518622,-1.06047 3.628728,-0.93184 -0.319713,-1.35053 -2.165342,-2.8307 -3.692632,-2.83073 z m -7.401733,13.73121 a 11.829226,9.6459989 0 0 0 -11.828758,9.64562 11.829226,9.6459989 0 0 0 11.828758,9.6456 11.829226,9.6459989 0 0 0 11.830868,-9.6456 11.829226,9.6459989 0 0 0 -11.830868,-9.64562 z m -0.0644,2.95705 a 8.1845458,6.6739873 0 0 1 8.185663,6.67408 8.1845458,6.6739873 0 0 1 -8.185663,6.67405 8.1845458,6.6739873 0 0 1 -8.183547,-6.67405 8.1845458,6.6739873 0 0 1 8.183547,-6.67408 z m -3.127347,4.78967 a 1.5146576,1.523301 0 0 0 -1.472888,1.52409 1.5146576,1.523301 0 0 0 1.514188,1.52201 1.5146576,1.523301 0 0 0 1.514188,-1.52201 1.5146576,1.523301 0 0 0 -1.514188,-1.52409 1.5146576,1.523301 0 0 0 -0.04122,0 z m 5.945328,0.0228 a 1.5146576,1.523301 0 0 0 -1.472894,1.52408 1.5146576,1.523301 0 0 0 1.514194,1.522 1.5146576,1.523301 0 0 0 1.514188,-1.522 1.5146576,1.523301 0 0 0 -1.514188,-1.52408 1.5146576,1.523301 0 0 0 -0.04122,0 z" /><path
         d="m 106.07843,119.27099 q 0,0.28682 -0.0302,0.51326 -0.0302,0.21134 -0.0906,0.3623 -0.0604,0.13586 -0.15096,0.19624 -0.0906,0.0604 -0.19624,0.0604 -0.18115,0 -0.60384,-0.28682 -0.42268,-0.28683 -1.13219,-0.63403 -0.7095,-0.3472 -1.70583,-0.63403 -0.98123,-0.28682 -2.339853,-0.28682 -1.615256,0 -2.898403,0.58874 -1.283147,0.58874 -2.173802,1.63035 -0.890656,1.04162 -1.373723,2.47572 -0.467971,1.43411 -0.467971,3.10975 0,1.87188 0.513259,3.32108 0.528355,1.44921 1.449201,2.44553 0.920847,0.99633 2.188899,1.50959 1.283147,0.51326 2.807828,0.51326 0.905755,0 1.826595,-0.21135 0.93595,-0.22643 1.73603,-0.66421 V 127.5888 H 98.9079 q -0.256629,0 -0.392492,-0.25663 -0.120767,-0.25663 -0.120767,-0.80008 0,-0.28682 0.03019,-0.48307 0.03019,-0.21134 0.09057,-0.3321 0.07548,-0.13587 0.166054,-0.19625 0.09058,-0.0604 0.226438,-0.0604 h 6.204387 q 0.16606,0 0.33211,0.0604 0.16606,0.0604 0.30192,0.18115 0.13586,0.12077 0.21134,0.33211 0.0755,0.21134 0.0755,0.48307 v 7.44225 q 0,0.39249 -0.13586,0.67931 -0.13586,0.28682 -0.57364,0.51326 -0.43778,0.21134 -1.13219,0.46797 -0.69441,0.25663 -1.43411,0.43778 -0.73969,0.18115 -1.49449,0.27173 -0.75479,0.0906 -1.494483,0.0906 -2.264378,0 -4.045688,-0.69441 -1.78131,-0.7095 -3.01917,-2.00774 -1.222764,-1.29825 -1.871885,-3.10975 -0.649122,-1.8115 -0.649122,-4.04569 0,-2.32476 0.694409,-4.21174 0.709505,-1.88698 1.977557,-3.21541 1.283147,-1.32844 3.064457,-2.05304 1.796406,-0.7397 3.970208,-0.7397 1.117087,0 2.098317,0.19625 0.98123,0.19625 1.73603,0.46797 0.76988,0.25663 1.28314,0.57364 0.52836,0.30192 0.7246,0.49817 0.19625,0.19624 0.27173,0.45287 0.0755,0.25663 0.0755,0.7397 z m 17.85839,16.48467 q 0,0.12076 -0.0453,0.21134 -0.0453,0.0906 -0.19624,0.15096 -0.15096,0.0604 -0.42269,0.0906 -0.27172,0.0302 -0.7246,0.0302 -0.39249,0 -0.64912,-0.0302 -0.24153,-0.0302 -0.39249,-0.0906 -0.15096,-0.0755 -0.24154,-0.19625 -0.0755,-0.12077 -0.13586,-0.30192 l -1.79641,-4.60423 q -0.31701,-0.78499 -0.66421,-1.43411 -0.33211,-0.66421 -0.80008,-1.13219 -0.46797,-0.48306 -1.102,-0.73969 -0.63403,-0.27173 -1.52468,-0.27173 h -1.73602 v 8.31782 q 0,0.12076 -0.0755,0.21134 -0.0604,0.0906 -0.21134,0.15096 -0.13587,0.0453 -0.3925,0.0755 -0.24153,0.0453 -0.61893,0.0453 -0.37739,0 -0.63402,-0.0453 -0.24154,-0.0302 -0.39249,-0.0755 -0.15096,-0.0604 -0.21135,-0.15096 -0.0604,-0.0906 -0.0604,-0.21134 v -18.08483 q 0,-0.58874 0.30192,-0.81518 0.31701,-0.24153 0.66421,-0.24153 h 4.15136 q 0.7397,0 1.22277,0.0453 0.49816,0.0302 0.89065,0.0755 1.13219,0.19624 1.99265,0.61892 0.87556,0.42269 1.4643,1.07181 0.58874,0.64912 0.87556,1.49449 0.30192,0.83027 0.30192,1.84169 0,0.98123 -0.27173,1.76622 -0.25663,0.76989 -0.75479,1.37372 -0.49816,0.58874 -1.19257,1.02652 -0.69441,0.43778 -1.55487,0.73969 0.48306,0.21135 0.87556,0.54345 0.39249,0.31702 0.7246,0.76989 0.3472,0.45288 0.64912,1.04162 0.30191,0.58873 0.60383,1.32843 l 1.75112,4.30232 q 0.21134,0.54345 0.27173,0.76989 0.0604,0.21134 0.0604,0.33211 z m -3.90983,-13.72213 q 0,-1.14729 -0.51326,-1.93227 -0.51325,-0.80008 -1.72092,-1.14729 -0.3774,-0.10567 -0.86047,-0.15095 -0.46797,-0.0453 -1.23786,-0.0453 h -2.18889 v 6.58179 h 2.5361 q 1.02652,0 1.76621,-0.24153 0.7548,-0.25663 1.25296,-0.69441 0.49816,-0.45288 0.7246,-1.05671 0.24153,-0.60384 0.24153,-1.31334 z m 22.29657,13.19377 q 0.12077,0.33211 0.12077,0.54345 0.0151,0.19625 -0.10567,0.30192 -0.12077,0.10567 -0.40759,0.13586 -0.27173,0.0302 -0.7397,0.0302 -0.46797,0 -0.75479,-0.0302 -0.27172,-0.0151 -0.42268,-0.0604 -0.13587,-0.0604 -0.21135,-0.15096 -0.0604,-0.0906 -0.12076,-0.22644 l -1.67564,-4.75519 h -8.12157 l -1.60016,4.69481 q -0.0453,0.13586 -0.12077,0.24153 -0.0755,0.0906 -0.22643,0.16606 -0.13587,0.0604 -0.40759,0.0906 -0.25663,0.0302 -0.67931,0.0302 -0.43778,0 -0.7246,-0.0453 -0.27173,-0.0302 -0.3925,-0.13587 -0.10567,-0.10567 -0.10567,-0.30191 0.0151,-0.21135 0.13586,-0.54346 l 6.5516,-18.14521 q 0.0604,-0.16605 0.15096,-0.27172 0.10567,-0.10567 0.28682,-0.16606 0.19625,-0.0604 0.48307,-0.0755 0.30192,-0.0302 0.75479,-0.0302 0.48307,0 0.80008,0.0302 0.31702,0.0151 0.51326,0.0755 0.19625,0.0604 0.30192,0.18115 0.10567,0.10568 0.16605,0.27173 z m -8.40839,-16.0167 h -0.0151 l -3.36638,9.73683 h 6.79314 z m 26.43284,15.86574 q 0,0.30192 -0.10567,0.51326 -0.0906,0.21134 -0.25663,0.34721 -0.15096,0.13586 -0.34721,0.19624 -0.19624,0.0604 -0.39249,0.0604 h -0.83027 q -0.39249,0 -0.69441,-0.0755 -0.28682,-0.0906 -0.55855,-0.30192 -0.25663,-0.22644 -0.52835,-0.60384 -0.25663,-0.37739 -0.57364,-0.96613 l -6.15911,-11.11054 q -0.48307,-0.86047 -0.98123,-1.79641 -0.48307,-0.95104 -0.90575,-1.84169 h -0.0302 q 0.0302,1.0869 0.0453,2.21909 0.0151,1.13218 0.0151,2.24928 v 11.78986 q 0,0.10567 -0.0604,0.21134 -0.0604,0.0906 -0.21134,0.15096 -0.13587,0.0453 -0.3774,0.0755 -0.22644,0.0453 -0.58874,0.0453 -0.3623,0 -0.60383,-0.0453 -0.22644,-0.0302 -0.3623,-0.0755 -0.13587,-0.0604 -0.19625,-0.15096 -0.0604,-0.10567 -0.0604,-0.21134 V 117.7312 q 0,-0.60383 0.33211,-0.86046 0.33211,-0.25663 0.7246,-0.25663 h 1.23786 q 0.43778,0 0.7246,0.0755 0.30191,0.0755 0.52835,0.25663 0.24154,0.16605 0.45288,0.48306 0.22644,0.30192 0.48306,0.76989 l 4.7401,8.57445 q 0.43778,0.78498 0.84537,1.53977 0.40759,0.7397 0.78498,1.4643 0.3774,0.7246 0.7397,1.4341 0.3774,0.69441 0.7397,1.40392 h 0.0151 q -0.0302,-1.19257 -0.0453,-2.47572 0,-1.29824 0,-2.49082 V 117.0519 q 0,-0.10567 0.0604,-0.19625 0.0604,-0.0906 0.19624,-0.15096 0.15096,-0.0755 0.3774,-0.10567 0.24153,-0.0302 0.61893,-0.0302 0.33211,0 0.57364,0.0302 0.24154,0.0302 0.3774,0.10567 0.13586,0.0604 0.19625,0.15096 0.0604,0.0906 0.0604,0.19625 z m 9.90288,-3.84944 q 0,1.16238 -0.21134,2.12852 -0.21135,0.96613 -0.72461,1.64544 -0.51325,0.67932 -1.35862,1.05671 -0.83027,0.3623 -2.06813,0.3623 -0.42269,0 -0.84537,-0.0755 -0.40759,-0.0604 -0.75479,-0.18115 -0.34721,-0.10567 -0.60384,-0.22643 -0.25663,-0.13587 -0.3472,-0.22644 -0.0755,-0.0906 -0.13586,-0.18115 -0.0453,-0.0906 -0.0906,-0.21134 -0.0302,-0.13587 -0.0453,-0.31702 -0.0151,-0.19624 -0.0151,-0.46797 0,-0.33211 0.0151,-0.54345 0.0302,-0.22644 0.0906,-0.3472 0.0604,-0.13587 0.13586,-0.18115 0.0906,-0.0604 0.21134,-0.0604 0.12077,0 0.30192,0.12077 0.19625,0.10567 0.45288,0.24153 0.27172,0.13587 0.61892,0.25663 0.34721,0.10567 0.81518,0.10567 0.51326,0 0.87556,-0.12076 0.3623,-0.13587 0.60383,-0.48307 0.24154,-0.3472 0.3623,-0.95104 0.12077,-0.61893 0.12077,-1.60016 v -13.97876 q 0,-0.10567 0.0604,-0.19624 0.0604,-0.0906 0.21135,-0.15096 0.15095,-0.0604 0.39249,-0.0906 0.25663,-0.0302 0.63402,-0.0302 0.3623,0 0.61893,0.0302 0.25663,0.0302 0.3925,0.0906 0.15095,0.0604 0.21134,0.15096 0.0755,0.0906 0.0755,0.19624 z m 19.2472,4.0004 q 0.12077,0.33211 0.12077,0.54345 0.0151,0.19625 -0.10567,0.30192 -0.12077,0.10567 -0.40759,0.13586 -0.27173,0.0302 -0.7397,0.0302 -0.46797,0 -0.75479,-0.0302 -0.27172,-0.0151 -0.42268,-0.0604 -0.13587,-0.0604 -0.21135,-0.15096 -0.0604,-0.0906 -0.12076,-0.22644 l -1.67564,-4.75519 h -8.12157 l -1.60016,4.69481 q -0.0453,0.13586 -0.12077,0.24153 -0.0755,0.0906 -0.22643,0.16606 -0.13587,0.0604 -0.40759,0.0906 -0.25663,0.0302 -0.67931,0.0302 -0.43778,0 -0.7246,-0.0453 -0.27173,-0.0302 -0.3925,-0.13587 -0.10567,-0.10567 -0.10567,-0.30191 0.0151,-0.21135 0.13586,-0.54346 l 6.5516,-18.14521 q 0.0604,-0.16605 0.15096,-0.27172 0.10567,-0.10567 0.28682,-0.16606 0.19625,-0.0604 0.48307,-0.0755 0.30192,-0.0302 0.75479,-0.0302 0.48307,0 0.80008,0.0302 0.31702,0.0151 0.51326,0.0755 0.19625,0.0604 0.30192,0.18115 0.10567,0.10568 0.16605,0.27173 z m -8.40839,-16.0167 h -0.0151 l -3.36638,9.73683 h 6.79314 z"
         id="text968-0-1-8-9-9-6-8-4-7-7"
         style="font-size:30.9163px;line-height:1.25;font-family:Calibri;-inkscape-font-specification:'Calibri, Normal';fill:#004d1f;stroke-width:0.625208"
         transform="scale(0.99715889,1.0028492)"
         aria-label="GRANJA&#10;" /><path
         style="font-size:30.9167px;line-height:1.25;font-family:Calibri;-inkscape-font-specification:'Calibri, Normal';fill:#004d1f;stroke-width:0.625208"
         d="m 103.66396,155.61603 q 0,0.92086 -0.24154,1.70585 -0.22644,0.7699 -0.64913,1.38884 -0.42269,0.61893 -1.02653,1.08691 -0.58874,0.46798 -1.34355,0.785 -0.739702,0.31701 -1.600177,0.48307 -0.845378,0.15096 -1.94739,0.15096 H 91.75318 q -0.347209,0 -0.664226,-0.22644 -0.301921,-0.24154 -0.301921,-0.83028 V 142.7391 q 0,-0.58875 0.301921,-0.81519 0.317017,-0.24153 0.664226,-0.24153 h 4.438238 q 1.751141,0 2.868248,0.33211 1.117104,0.33211 1.856814,0.96615 0.7548,0.63403 1.1322,1.55489 0.3774,0.92086 0.3774,2.08325 0,0.69442 -0.16605,1.32846 -0.16606,0.63403 -0.49817,1.17749 -0.31702,0.52836 -0.81519,0.95105 -0.48307,0.42269 -1.117106,0.69442 0.800086,0.15096 1.494506,0.55855 0.69442,0.3925 1.20769,1.01144 0.52836,0.61893 0.83028,1.44922 0.30192,0.83028 0.30192,1.82662 z m -3.909876,-8.74061 q 0,-0.70952 -0.196248,-1.28317 -0.196249,-0.57365 -0.618938,-0.96614 -0.42269,-0.4076 -1.102012,-0.61894 -0.679322,-0.21135 -1.796429,-0.21135 h -2.687096 v 6.32525 h 2.958825 q 1.011435,0 1.630373,-0.25664 0.618938,-0.27173 1.026531,-0.70951 0.407593,-0.45288 0.588746,-1.04163 0.196248,-0.60384 0.196248,-1.23787 z m 1.177496,8.89157 q 0,-0.87557 -0.28683,-1.5398 -0.27173,-0.66423 -0.815186,-1.11711 -0.528361,-0.45288 -1.343548,-0.67932 -0.80009,-0.24154 -2.02287,-0.24154 h -3.109785 v 6.8838 h 3.774011 q 0.890667,0 1.554893,-0.21134 0.664226,-0.21135 1.162395,-0.61894 0.51327,-0.42269 0.80009,-1.04163 0.28683,-0.61894 0.28683,-1.43412 z m 9.26897,5.05717 q 0,0.12077 -0.0604,0.21135 -0.0604,0.0906 -0.21134,0.15096 -0.15096,0.0453 -0.4076,0.0755 -0.24153,0.0453 -0.61893,0.0453 -0.36231,0 -0.61894,-0.0453 -0.25663,-0.0302 -0.40759,-0.0755 -0.15096,-0.0604 -0.21135,-0.15096 -0.0604,-0.0906 -0.0604,-0.21135 v -18.74929 q 0,-0.12076 0.0604,-0.21134 0.0755,-0.0906 0.22644,-0.13586 0.16606,-0.0604 0.4076,-0.0906 0.25663,-0.0453 0.60384,-0.0453 0.3774,0 0.61893,0.0453 0.25664,0.0302 0.4076,0.0906 0.15096,0.0453 0.21134,0.13586 0.0604,0.0906 0.0604,0.21134 z m 18.23602,-2.37008 q 0,0.24154 -0.0151,0.42269 -0.0151,0.18116 -0.0604,0.31702 -0.0302,0.13586 -0.0906,0.24154 -0.0604,0.10567 -0.21134,0.25663 -0.15096,0.15096 -0.63404,0.46798 -0.48307,0.30192 -1.20768,0.60384 -0.70951,0.28682 -1.64547,0.48307 -0.92086,0.21135 -2.02287,0.21135 -1.9021,0 -3.4419,-0.63404 -1.5247,-0.63403 -2.61161,-1.87191 -1.07182,-1.23787 -1.66057,-3.0494 -0.57365,-1.82662 -0.57365,-4.1967 0,-2.43046 0.61894,-4.33256 0.63403,-1.90211 1.76624,-3.21546 1.1322,-1.32845 2.70219,-2.02287 1.58508,-0.69442 3.50228,-0.69442 0.84538,0 1.64547,0.16606 0.80009,0.15096 1.47941,0.39249 0.67933,0.24154 1.20769,0.55856 0.52836,0.31701 0.72461,0.52836 0.21134,0.19625 0.27173,0.30192 0.0604,0.10567 0.0906,0.25663 0.0453,0.13587 0.0604,0.33212 0.0302,0.19624 0.0302,0.46797 0,0.30192 -0.0302,0.51327 -0.0302,0.21134 -0.0906,0.3623 -0.0604,0.13587 -0.15096,0.21135 -0.0755,0.0604 -0.19625,0.0604 -0.21134,0 -0.58874,-0.28682 -0.37741,-0.30192 -0.98125,-0.64913 -0.58874,-0.36231 -1.44922,-0.64913 -0.84538,-0.30192 -2.03796,-0.30192 -1.29826,0 -2.37008,0.52836 -1.05673,0.51326 -1.81153,1.5247 -0.7548,1.01143 -1.17749,2.47575 -0.40759,1.44922 -0.40759,3.32113 0,1.85681 0.39249,3.29094 0.4076,1.41903 1.1473,2.38517 0.75481,0.95105 1.84172,1.44922 1.08692,0.48308 2.46066,0.48308 1.16239,0 2.02287,-0.28683 0.87557,-0.28682 1.47941,-0.63403 0.61894,-0.36231 1.01143,-0.64913 0.3925,-0.28683 0.61894,-0.28683 0.10567,0 0.18115,0.0453 0.0755,0.0453 0.12077,0.18115 0.0453,0.12077 0.0604,0.34721 0.0302,0.22644 0.0302,0.57365 z m 16.18296,2.33989 q 0,0.12077 -0.0604,0.22644 -0.0453,0.0906 -0.19625,0.15096 -0.15096,0.0604 -0.4076,0.0906 -0.25663,0.0453 -0.66422,0.0453 -0.52836,0 -0.86048,-0.0453 -0.33211,-0.0453 -0.49817,-0.16606 -0.16605,-0.12077 -0.27172,-0.27173 l -7.18572,-9.76714 v 9.76714 q 0,0.10567 -0.0604,0.21135 -0.0604,0.0906 -0.21134,0.15096 -0.15096,0.0453 -0.40759,0.0755 -0.24154,0.0453 -0.61894,0.0453 -0.36231,0 -0.61894,-0.0453 -0.25663,-0.0302 -0.40759,-0.0755 -0.15096,-0.0604 -0.21135,-0.15096 -0.0604,-0.10568 -0.0604,-0.21135 v -18.74929 q 0,-0.12076 0.0604,-0.21134 0.0604,-0.0906 0.21135,-0.13586 0.15096,-0.0604 0.40759,-0.0906 0.25663,-0.0453 0.61894,-0.0453 0.3774,0 0.61894,0.0453 0.25663,0.0302 0.40759,0.0906 0.15096,0.0453 0.21134,0.13586 0.0604,0.0906 0.0604,0.21134 v 8.68023 l 6.91399,-8.68023 q 0.0906,-0.13586 0.21134,-0.22644 0.12077,-0.0906 0.28683,-0.13586 0.18115,-0.0604 0.42269,-0.0906 0.25663,-0.0302 0.64912,-0.0302 0.3925,0 0.63404,0.0453 0.24154,0.0302 0.3774,0.0906 0.15096,0.0604 0.19625,0.15096 0.0604,0.0906 0.0604,0.19624 0,0.19625 -0.10567,0.3925 -0.0906,0.19625 -0.3623,0.54346 l -6.47621,7.74427 6.97437,9.26897 q 0.25664,0.3925 0.30193,0.54346 0.0604,0.13586 0.0604,0.22644 z m 14.19028,-0.64913 q 0,0.27173 -0.0302,0.48307 -0.0302,0.19625 -0.10567,0.33212 -0.0755,0.13586 -0.18116,0.19625 -0.0906,0.0604 -0.21134,0.0604 h -9.37464 q -0.34721,0 -0.66423,-0.22644 -0.30192,-0.24154 -0.30192,-0.83028 V 142.7391 q 0,-0.58875 0.30192,-0.81519 0.31702,-0.24153 0.66423,-0.24153 h 9.26897 q 0.12077,0 0.21134,0.0604 0.10567,0.0604 0.16606,0.19625 0.0604,0.13586 0.0906,0.34721 0.0453,0.19625 0.0453,0.49817 0,0.27173 -0.0453,0.48307 -0.0302,0.19625 -0.0906,0.33211 -0.0604,0.12077 -0.16606,0.18116 -0.0906,0.0604 -0.21134,0.0604 h -7.6386 v 6.129 h 6.55168 q 0.12077,0 0.21135,0.0755 0.10567,0.0604 0.16605,0.18115 0.0755,0.12077 0.10568,0.33211 0.0302,0.21135 0.0302,0.49817 0,0.27173 -0.0302,0.46798 -0.0302,0.19625 -0.10568,0.31702 -0.0604,0.12076 -0.16605,0.18115 -0.0906,0.0453 -0.21135,0.0453 h -6.55168 v 6.98947 h 7.74427 q 0.12077,0 0.21134,0.0604 0.10568,0.0604 0.18116,0.19625 0.0755,0.12077 0.10567,0.33211 0.0302,0.19625 0.0302,0.49817 z m 14.35634,-0.0604 q 0,0.30192 -0.0302,0.51326 -0.0302,0.19625 -0.10567,0.34721 -0.0604,0.13587 -0.16606,0.21135 -0.0906,0.0604 -0.22644,0.0604 h -8.63494 q -0.34721,0 -0.66422,-0.22644 -0.30192,-0.24154 -0.30192,-0.83028 v -18.08507 q 0,-0.12076 0.0604,-0.21134 0.0604,-0.0906 0.21134,-0.13586 0.15096,-0.0604 0.4076,-0.0906 0.25663,-0.0453 0.61894,-0.0453 0.3774,0 0.61893,0.0453 0.25664,0.0302 0.4076,0.0906 0.15096,0.0453 0.21134,0.13586 0.0604,0.0906 0.0604,0.21134 v 16.89248 h 7.00456 q 0.13586,0 0.22644,0.0755 0.10567,0.0604 0.16606,0.19625 0.0755,0.12077 0.10567,0.33211 0.0302,0.21135 0.0302,0.51327 z"
         id="text968-1-23-2-2-2-84-6-7-4-6-1"
         transform="scale(0.99715889,1.0028492)"
         aria-label="BICKEL&#10;" /><path
         style="fill:#d2060e;fill-opacity:1;stroke:none;stroke-width:0.552072;stroke-linecap:butt;stroke-linejoin:miter;stroke-miterlimit:4;stroke-dasharray:none;stroke-opacity:1"
         d="m 89.926282,165.40782 c 32.774358,13.40519 52.202458,-12.60435 99.146718,8.24735 -52.63918,-15.91518 -69.44956,17.40229 -99.146718,-8.24735 z"
         id="path899-45-7-3-8-7-7-0-1-6-2" /><path
         style="fill:#004d1f;fill-opacity:1;stroke:none;stroke-width:0.552072;stroke-linecap:butt;stroke-linejoin:miter;stroke-miterlimit:4;stroke-dasharray:none;stroke-opacity:1"
         d="m 89.935908,166.01492 c 29.266182,27.0108 48.228292,-7.31168 99.145912,8.33613 -51.02951,-13.11743 -70.77311,25.53618 -99.145912,-8.33613 z"
         id="path899-4-6-2-7-4-0-2-9-1-9-7" /></g></g></svg>
